<?xml version="1.0" encoding="UTF-8"?>
<svg xmlns="http://www.w3.org/2000/svg" xmlns:xlink="http://www.w3.org/1999/xlink" width="128px" height="128px" viewBox="0 0 128 128" version="1.1">
<g id="surface1">
<path style=" stroke:none;fill-rule:nonzero;fill:rgb(0%,0%,0%);fill-opacity:1;" d="M 114.1875 61.761719 L 66.1875 13.761719 C 64.265625 11.839844 61.601562 10.667969 58.667969 10.667969 L 21.332031 10.667969 C 15.464844 10.667969 10.667969 15.464844 10.667969 21.332031 L 10.667969 58.667969 C 10.667969 61.601562 11.839844 64.265625 13.8125 66.238281 L 61.8125 114.238281 C 63.734375 116.160156 66.398438 117.332031 69.332031 117.332031 C 72.265625 117.332031 74.933594 116.160156 76.851562 114.1875 L 114.1875 76.851562 C 116.160156 74.933594 117.332031 72.265625 117.332031 69.332031 C 117.332031 66.398438 116.105469 63.679688 114.1875 61.761719 Z M 29.332031 37.332031 C 24.90625 37.332031 21.332031 33.761719 21.332031 29.332031 C 21.332031 24.90625 24.90625 21.332031 29.332031 21.332031 C 33.761719 21.332031 37.332031 24.90625 37.332031 29.332031 C 37.332031 33.761719 33.761719 37.332031 29.332031 37.332031 Z M 29.332031 37.332031 "/>
</g>
</svg>
